<svg xmlns="http://www.w3.org/2000/svg"  viewBox="0 0 64 64" width="64px" height="64px"><path fill="#ff9800" stroke="#8d6c9f" stroke-miterlimit="10" stroke-width="2" d="M13,7h38c3.314,0,6,2.686,6,6v38 c0,3.314-2.686,6-6,6H13c-3.314,0-6-2.686-6-6V13C7,9.686,9.686,7,13,7z"/><path fill="#3a69ed" d="M13,7h38c3.314,0,6,2.686,6,6v38c0,3.314-2.686,6-6,6H13c-3.314,0-6-2.686-6-6V13 C7,9.686,9.686,7,13,7z"/><path fill="#8f34bf" d="M57,51V19.34C53.335,14.522,48.891,10.351,43.85,7H13c-3.314,0-6,2.686-6,6v38c0,3.314,2.686,6,6,6 h38C54.314,57,57,54.314,57,51z"/><path fill="#bb52ce" d="M57,51V28.49C51.741,18.903,43.437,11.341,33.4,7H13c-3.314,0-6,2.686-6,6v38c0,3.314,2.686,6,6,6 h38C54.314,57,57,54.314,57,51z"/><path fill="#e0678f" d="M57,51v-8.33C52.61,22.435,34.705,8,14,8c-1.553,0.002-3.105,0.086-4.65,0.25 C7.872,9.383,7.004,11.138,7,13v38c0,3.314,2.686,6,6,6h38C54.314,57,57,54.314,57,51z"/><path fill="#ff9800" d="M14,14c-2.348,0.001-4.692,0.218-7,0.65V51c0,3.314,2.686,6,6,6h38c0.223,0.012,0.447,0.012,0.67,0 c0.219-1.658,0.329-3.328,0.33-5C52,31.013,34.987,14,14,14z"/><path fill="#f4b998" d="M14,20c-2.355,0.002-4.702,0.264-7,0.78V51c0,3.314,2.686,6,6,6h32.61 c0.26-1.654,0.39-3.326,0.39-5C46,34.327,31.673,20,14,20z"/><path fill="#f6d397" d="M14,26c-2.368,0.013-4.723,0.349-7,1v24c0,3.314,2.686,6,6,6h26.51 c2.761-14.091-6.423-27.753-20.515-30.515C17.35,26.163,15.677,26,14,26z"/><path fill="#f9e3ae" d="M14,32c-2.391,0.003-4.762,0.436-7,1.28V51c0,3.314,2.686,6,6,6h20.34 c2.8-10.645-3.559-21.544-14.204-24.344C17.46,32.215,15.733,31.994,14,32z"/><path fill="#faefde" d="M14,38c-2.459,0.001-4.875,0.653-7,1.89V51c0,3.314,2.686,6,6,6h14.06 c2.761-7.222-0.855-15.315-8.077-18.077C17.392,38.315,15.703,38.002,14,38z"/><path fill="#85cbf8" d="M48,14c-1.105,0-2,0.895-2,2s0.895,2,2,2s2-0.895,2-2S49.105,14,48,14z"/><path fill="#f9e3ae" d="M48,13c-1.657,0-3,1.343-3,3s1.343,3,3,3s3-1.343,3-3S49.657,13,48,13z M48,17.47 c-0.812,0-1.47-0.658-1.47-1.47c0-0.812,0.658-1.47,1.47-1.47c0.812,0,1.47,0.658,1.47,1.47C49.47,16.812,48.812,17.47,48,17.47 L48,17.47z"/><path fill="#8d6c9f" d="M17,49c-0.552,0-1,0.448-1,1v2c0,0.552,0.448,1,1,1s1-0.448,1-1v-2C18,49.448,17.552,49,17,49z M12,49c-0.552,0-1,0.448-1,1v2c0,0.552,0.448,1,1,1s1-0.448,1-1v-2C13,49.448,12.552,49,12,49z M32,49c-0.552,0-1,0.448-1,1v2 c0,0.552,0.448,1,1,1s1-0.448,1-1v-2C33,49.448,32.552,49,32,49z M37,49c-0.552,0-1,0.448-1,1v2c0,0.552,0.448,1,1,1s1-0.448,1-1 v-2C38,49.448,37.552,49,37,49z M42,49c-0.552,0-1,0.448-1,1v2c0,0.552,0.448,1,1,1s1-0.448,1-1v-2C43,49.448,42.552,49,42,49z M47,49c-0.552,0-1,0.448-1,1v2c0,0.552,0.448,1,1,1s1-0.448,1-1v-2C48,49.448,47.552,49,47,49z M52,49c-0.552,0-1,0.448-1,1v2 c0,0.552,0.448,1,1,1s1-0.448,1-1v-2C53,49.448,52.552,49,52,49z M22,49c-0.552,0-1,0.448-1,1v2c0,0.552,0.448,1,1,1s1-0.448,1-1 v-2C23,49.448,22.552,49,22,49z M27,49c-0.552,0-1,0.448-1,1v2c0,0.552,0.448,1,1,1s1-0.448,1-1v-2C28,49.448,27.552,49,27,49z"/><path fill="none" stroke="#8d6c9f" stroke-miterlimit="10" stroke-width="2" d="M13,7h38c3.314,0,6,2.686,6,6v38 c0,3.314-2.686,6-6,6H13c-3.314,0-6-2.686-6-6V13C7,9.686,9.686,7,13,7z"/><g><path fill="#ff9800" stroke="#8d6c9f" stroke-miterlimit="10" stroke-width="2" d="M32,19c-7.18,0-13,5.82-13,13s5.82,13,13,13 s13-5.82,13-13S39.18,19,32,19z"/></g><g><path fill="#f9e3ae" stroke="#8d6c9f" stroke-miterlimit="10" stroke-width="2" d="M32,19c-7.18,0-13,5.82-13,13s5.82,13,13,13 s13-5.82,13-13S39.18,19,32,19z"/><path fill="#bbdef9" stroke="#8d6c9f" stroke-miterlimit="10" stroke-width="2" d="M32,23c-4.971,0-9,4.029-9,9s4.029,9,9,9 s9-4.029,9-9S36.971,23,32,23z"/><path fill="#d2edff" d="M32,27c-2.761,0-5,2.239-5,5s2.239,5,5,5s5-2.239,5-5S34.761,27,32,27z"/><path fill="#f3f3f3" d="M30,27c-1.657,0-3,1.343-3,3s1.343,3,3,3s3-1.343,3-3S31.657,27,30,27z M35.5,34 c-0.828,0-1.5,0.672-1.5,1.5s0.672,1.5,1.5,1.5s1.5-0.672,1.5-1.5S36.328,34,35.5,34z"/></g></svg>